<mxfile host="app.diagrams.net" modified="2022-09-01T23:17:26.366Z" agent="5.0 (X11; Linux x86_64) AppleWebKit/537.36 (KHTML, like Gecko) Chrome/105.0.0.0 Safari/537.36" etag="7cB4RS3aUeeFATnMGI_2" version="20.2.7" type="github">
  <diagram id="WxZgPyMLXEtj6TzBHhpI" name="Página-1">
    <mxGraphModel dx="1848" dy="1705" grid="1" gridSize="10" guides="0" tooltips="1" connect="1" arrows="1" fold="1" page="1" pageScale="1" pageWidth="827" pageHeight="1169" background="none" math="0" shadow="0">
      <root>
        <mxCell id="0" />
        <mxCell id="1" parent="0" />
        <mxCell id="JuVtvxZwjuhmVleojVNO-1" value="&lt;&lt;Cliente&gt;&gt;" style="swimlane;fontStyle=1;childLayout=stackLayout;horizontal=1;startSize=26;fillColor=#dae8fc;horizontalStack=0;resizeParent=1;resizeParentMax=0;resizeLast=0;collapsible=1;marginBottom=0;strokeColor=#6c8ebf;rounded=1;" parent="1" vertex="1">
          <mxGeometry x="-130" y="10" width="140" height="286" as="geometry">
            <mxRectangle x="290" y="150" width="100" height="30" as="alternateBounds" />
          </mxGeometry>
        </mxCell>
        <mxCell id="JuVtvxZwjuhmVleojVNO-2" value="-tipoId" style="text;strokeColor=none;fillColor=none;align=left;verticalAlign=top;spacingLeft=4;spacingRight=4;overflow=hidden;rotatable=0;points=[[0,0.5],[1,0.5]];portConstraint=eastwest;rounded=1;" parent="JuVtvxZwjuhmVleojVNO-1" vertex="1">
          <mxGeometry y="26" width="140" height="26" as="geometry" />
        </mxCell>
        <mxCell id="JuVtvxZwjuhmVleojVNO-3" value="-id" style="text;strokeColor=none;fillColor=none;align=left;verticalAlign=top;spacingLeft=4;spacingRight=4;overflow=hidden;rotatable=0;points=[[0,0.5],[1,0.5]];portConstraint=eastwest;rounded=1;" parent="JuVtvxZwjuhmVleojVNO-1" vertex="1">
          <mxGeometry y="52" width="140" height="26" as="geometry" />
        </mxCell>
        <mxCell id="JuVtvxZwjuhmVleojVNO-4" value="-nombre" style="text;strokeColor=none;fillColor=none;align=left;verticalAlign=top;spacingLeft=4;spacingRight=4;overflow=hidden;rotatable=0;points=[[0,0.5],[1,0.5]];portConstraint=eastwest;rounded=1;" parent="JuVtvxZwjuhmVleojVNO-1" vertex="1">
          <mxGeometry y="78" width="140" height="26" as="geometry" />
        </mxCell>
        <mxCell id="JuVtvxZwjuhmVleojVNO-7" value="-apellido" style="text;strokeColor=none;fillColor=none;align=left;verticalAlign=top;spacingLeft=4;spacingRight=4;overflow=hidden;rotatable=0;points=[[0,0.5],[1,0.5]];portConstraint=eastwest;rounded=1;" parent="JuVtvxZwjuhmVleojVNO-1" vertex="1">
          <mxGeometry y="104" width="140" height="26" as="geometry" />
        </mxCell>
        <mxCell id="JuVtvxZwjuhmVleojVNO-8" value="-teléfono" style="text;strokeColor=none;fillColor=none;align=left;verticalAlign=top;spacingLeft=4;spacingRight=4;overflow=hidden;rotatable=0;points=[[0,0.5],[1,0.5]];portConstraint=eastwest;rounded=1;" parent="JuVtvxZwjuhmVleojVNO-1" vertex="1">
          <mxGeometry y="130" width="140" height="26" as="geometry" />
        </mxCell>
        <mxCell id="JuVtvxZwjuhmVleojVNO-11" value="-corrreo" style="text;strokeColor=none;fillColor=none;align=left;verticalAlign=top;spacingLeft=4;spacingRight=4;overflow=hidden;rotatable=0;points=[[0,0.5],[1,0.5]];portConstraint=eastwest;rounded=1;" parent="JuVtvxZwjuhmVleojVNO-1" vertex="1">
          <mxGeometry y="156" width="140" height="26" as="geometry" />
        </mxCell>
        <mxCell id="JuVtvxZwjuhmVleojVNO-13" value="-teléfono" style="text;strokeColor=none;fillColor=none;align=left;verticalAlign=top;spacingLeft=4;spacingRight=4;overflow=hidden;rotatable=0;points=[[0,0.5],[1,0.5]];portConstraint=eastwest;rounded=1;" parent="JuVtvxZwjuhmVleojVNO-1" vertex="1">
          <mxGeometry y="182" width="140" height="26" as="geometry" />
        </mxCell>
        <mxCell id="JuVtvxZwjuhmVleojVNO-12" value="-ciudad" style="text;strokeColor=none;fillColor=none;align=left;verticalAlign=top;spacingLeft=4;spacingRight=4;overflow=hidden;rotatable=0;points=[[0,0.5],[1,0.5]];portConstraint=eastwest;rounded=1;" parent="JuVtvxZwjuhmVleojVNO-1" vertex="1">
          <mxGeometry y="208" width="140" height="26" as="geometry" />
        </mxCell>
        <mxCell id="JuVtvxZwjuhmVleojVNO-15" value="-dirección" style="text;strokeColor=none;fillColor=none;align=left;verticalAlign=top;spacingLeft=4;spacingRight=4;overflow=hidden;rotatable=0;points=[[0,0.5],[1,0.5]];portConstraint=eastwest;rounded=1;" parent="JuVtvxZwjuhmVleojVNO-1" vertex="1">
          <mxGeometry y="234" width="140" height="26" as="geometry" />
        </mxCell>
        <mxCell id="JuVtvxZwjuhmVleojVNO-14" value="-fechaCreación" style="text;strokeColor=none;fillColor=none;align=left;verticalAlign=top;spacingLeft=4;spacingRight=4;overflow=hidden;rotatable=0;points=[[0,0.5],[1,0.5]];portConstraint=eastwest;rounded=1;" parent="JuVtvxZwjuhmVleojVNO-1" vertex="1">
          <mxGeometry y="260" width="140" height="26" as="geometry" />
        </mxCell>
        <mxCell id="JuVtvxZwjuhmVleojVNO-16" value="&lt;&lt;Usuario&gt;&gt;" style="swimlane;fontStyle=1;childLayout=stackLayout;horizontal=1;startSize=26;fillColor=#dae8fc;horizontalStack=0;resizeParent=1;resizeParentMax=0;resizeLast=0;collapsible=1;marginBottom=0;strokeColor=#6c8ebf;rounded=1;arcSize=25;" parent="1" vertex="1">
          <mxGeometry x="170" y="30" width="140" height="130" as="geometry" />
        </mxCell>
        <mxCell id="JuVtvxZwjuhmVleojVNO-17" value="-id" style="text;strokeColor=none;fillColor=none;align=left;verticalAlign=top;spacingLeft=4;spacingRight=4;overflow=hidden;rotatable=0;points=[[0,0.5],[1,0.5]];portConstraint=eastwest;rounded=1;" parent="JuVtvxZwjuhmVleojVNO-16" vertex="1">
          <mxGeometry y="26" width="140" height="26" as="geometry" />
        </mxCell>
        <mxCell id="JuVtvxZwjuhmVleojVNO-19" value="-usuario" style="text;strokeColor=none;fillColor=none;align=left;verticalAlign=top;spacingLeft=4;spacingRight=4;overflow=hidden;rotatable=0;points=[[0,0.5],[1,0.5]];portConstraint=eastwest;rounded=1;" parent="JuVtvxZwjuhmVleojVNO-16" vertex="1">
          <mxGeometry y="52" width="140" height="26" as="geometry" />
        </mxCell>
        <mxCell id="JuVtvxZwjuhmVleojVNO-21" value="-contraseña" style="text;strokeColor=none;fillColor=none;align=left;verticalAlign=top;spacingLeft=4;spacingRight=4;overflow=hidden;rotatable=0;points=[[0,0.5],[1,0.5]];portConstraint=eastwest;rounded=1;" parent="JuVtvxZwjuhmVleojVNO-16" vertex="1">
          <mxGeometry y="78" width="140" height="26" as="geometry" />
        </mxCell>
        <mxCell id="JuVtvxZwjuhmVleojVNO-31" value="-rol" style="text;strokeColor=none;fillColor=none;align=left;verticalAlign=top;spacingLeft=4;spacingRight=4;overflow=hidden;rotatable=0;points=[[0,0.5],[1,0.5]];portConstraint=eastwest;rounded=1;" parent="JuVtvxZwjuhmVleojVNO-16" vertex="1">
          <mxGeometry y="104" width="140" height="26" as="geometry" />
        </mxCell>
        <mxCell id="JuVtvxZwjuhmVleojVNO-26" style="edgeStyle=orthogonalEdgeStyle;rounded=1;orthogonalLoop=1;jettySize=auto;html=1;entryX=1;entryY=0.5;entryDx=0;entryDy=0;startArrow=none;startFill=0;endArrow=diamondThin;endFill=1;endSize=20;strokeColor=#007FFF;strokeWidth=2;exitX=0;exitY=0.5;exitDx=0;exitDy=0;" parent="1" source="JuVtvxZwjuhmVleojVNO-19" target="JuVtvxZwjuhmVleojVNO-11" edge="1">
          <mxGeometry relative="1" as="geometry">
            <mxPoint x="380" y="160" as="sourcePoint" />
          </mxGeometry>
        </mxCell>
        <mxCell id="JuVtvxZwjuhmVleojVNO-29" value="1" style="text;html=1;strokeColor=none;fillColor=none;align=center;verticalAlign=middle;whiteSpace=wrap;rounded=0;labelBackgroundColor=default;fontSize=10;" parent="1" vertex="1">
          <mxGeometry x="300" y="68" width="40" height="30" as="geometry" />
        </mxCell>
        <mxCell id="JuVtvxZwjuhmVleojVNO-30" value="1" style="text;html=1;strokeColor=none;fillColor=none;align=center;verticalAlign=middle;whiteSpace=wrap;rounded=0;labelBackgroundColor=default;fontSize=10;" parent="1" vertex="1">
          <mxGeometry x="3" y="71" width="34" height="30" as="geometry" />
        </mxCell>
        <mxCell id="5buEi4mfANb2UXsL-Ifm-82" style="edgeStyle=orthogonalEdgeStyle;rounded=1;orthogonalLoop=1;jettySize=auto;html=1;exitX=0.5;exitY=0;exitDx=0;exitDy=0;entryX=0.355;entryY=1.009;entryDx=0;entryDy=0;entryPerimeter=0;fontSize=12;startArrow=none;startFill=0;endArrow=open;endFill=0;endSize=10;sourcePerimeterSpacing=0;targetPerimeterSpacing=0;strokeColor=#007FFF;strokeWidth=2;dashed=1;" edge="1" parent="1" source="JuVtvxZwjuhmVleojVNO-32" target="5buEi4mfANb2UXsL-Ifm-43">
          <mxGeometry relative="1" as="geometry" />
        </mxCell>
        <mxCell id="JuVtvxZwjuhmVleojVNO-32" value="&lt;&lt;JefeOperaciones&gt;&gt;" style="swimlane;fontStyle=1;childLayout=stackLayout;horizontal=1;startSize=26;fillColor=#dae8fc;horizontalStack=0;resizeParent=1;resizeParentMax=0;resizeLast=0;collapsible=1;marginBottom=0;rounded=1;labelBackgroundColor=none;fontSize=12;strokeColor=#6c8ebf;" parent="1" vertex="1">
          <mxGeometry x="520" y="260" width="140" height="182" as="geometry" />
        </mxCell>
        <mxCell id="JuVtvxZwjuhmVleojVNO-33" value="-id" style="text;strokeColor=none;fillColor=none;align=left;verticalAlign=top;spacingLeft=4;spacingRight=4;overflow=hidden;rotatable=0;points=[[0,0.5],[1,0.5]];portConstraint=eastwest;rounded=1;labelBackgroundColor=default;fontSize=12;" parent="JuVtvxZwjuhmVleojVNO-32" vertex="1">
          <mxGeometry y="26" width="140" height="26" as="geometry" />
        </mxCell>
        <mxCell id="JuVtvxZwjuhmVleojVNO-34" value="-nombre" style="text;strokeColor=none;fillColor=none;align=left;verticalAlign=top;spacingLeft=4;spacingRight=4;overflow=hidden;rotatable=0;points=[[0,0.5],[1,0.5]];portConstraint=eastwest;rounded=1;labelBackgroundColor=default;fontSize=12;" parent="JuVtvxZwjuhmVleojVNO-32" vertex="1">
          <mxGeometry y="52" width="140" height="26" as="geometry" />
        </mxCell>
        <mxCell id="JuVtvxZwjuhmVleojVNO-35" value="-apellido" style="text;strokeColor=none;fillColor=none;align=left;verticalAlign=top;spacingLeft=4;spacingRight=4;overflow=hidden;rotatable=0;points=[[0,0.5],[1,0.5]];portConstraint=eastwest;rounded=1;labelBackgroundColor=default;fontSize=12;" parent="JuVtvxZwjuhmVleojVNO-32" vertex="1">
          <mxGeometry y="78" width="140" height="26" as="geometry" />
        </mxCell>
        <mxCell id="JuVtvxZwjuhmVleojVNO-50" value="-teléfono" style="text;strokeColor=none;fillColor=none;align=left;verticalAlign=top;spacingLeft=4;spacingRight=4;overflow=hidden;rotatable=0;points=[[0,0.5],[1,0.5]];portConstraint=eastwest;rounded=1;labelBackgroundColor=default;fontSize=12;" parent="JuVtvxZwjuhmVleojVNO-32" vertex="1">
          <mxGeometry y="104" width="140" height="26" as="geometry" />
        </mxCell>
        <mxCell id="JuVtvxZwjuhmVleojVNO-51" value="-correo" style="text;strokeColor=none;fillColor=none;align=left;verticalAlign=top;spacingLeft=4;spacingRight=4;overflow=hidden;rotatable=0;points=[[0,0.5],[1,0.5]];portConstraint=eastwest;rounded=1;labelBackgroundColor=default;fontSize=12;" parent="JuVtvxZwjuhmVleojVNO-32" vertex="1">
          <mxGeometry y="130" width="140" height="26" as="geometry" />
        </mxCell>
        <mxCell id="5buEi4mfANb2UXsL-Ifm-42" value="-fechaCreación" style="text;strokeColor=none;fillColor=none;align=left;verticalAlign=top;spacingLeft=4;spacingRight=4;overflow=hidden;rotatable=0;points=[[0,0.5],[1,0.5]];portConstraint=eastwest;rounded=1;labelBackgroundColor=default;fontSize=12;" vertex="1" parent="JuVtvxZwjuhmVleojVNO-32">
          <mxGeometry y="156" width="140" height="26" as="geometry" />
        </mxCell>
        <mxCell id="JuVtvxZwjuhmVleojVNO-28" value="Puede ser" style="rounded=1;fontSize=10;strokeColor=none;fillColor=none;fontStyle=1;labelBackgroundColor=default;html=1;whiteSpace=wrap;" parent="1" vertex="1">
          <mxGeometry x="230" y="130" width="70" height="30" as="geometry" />
        </mxCell>
        <mxCell id="JuVtvxZwjuhmVleojVNO-54" style="edgeStyle=orthogonalEdgeStyle;rounded=1;orthogonalLoop=1;jettySize=auto;html=1;exitX=1;exitY=0.5;exitDx=0;exitDy=0;fontSize=10;endArrow=diamondThin;endFill=1;endSize=19;strokeColor=#007FFF;strokeWidth=2;entryX=0;entryY=0.5;entryDx=0;entryDy=0;" parent="1" source="JuVtvxZwjuhmVleojVNO-19" target="JuVtvxZwjuhmVleojVNO-35" edge="1">
          <mxGeometry relative="1" as="geometry">
            <mxPoint x="530" y="230" as="targetPoint" />
          </mxGeometry>
        </mxCell>
        <mxCell id="JuVtvxZwjuhmVleojVNO-59" value="&lt;b&gt;&lt;font style=&quot;font-size: 12px;&quot;&gt;&amp;lt;&amp;lt;Técnico&amp;gt;&amp;gt;&lt;/font&gt;&lt;/b&gt;" style="swimlane;fontStyle=0;childLayout=stackLayout;horizontal=1;startSize=26;fillColor=#dae8fc;horizontalStack=0;resizeParent=1;resizeParentMax=0;resizeLast=0;collapsible=1;marginBottom=0;rounded=1;labelBackgroundColor=none;fontSize=10;strokeColor=#6c8ebf;html=1;" parent="1" vertex="1">
          <mxGeometry x="740" y="30" width="140" height="182" as="geometry" />
        </mxCell>
        <mxCell id="JuVtvxZwjuhmVleojVNO-60" value="-id" style="text;strokeColor=none;fillColor=none;align=left;verticalAlign=top;spacingLeft=4;spacingRight=4;overflow=hidden;rotatable=0;points=[[0,0.5],[1,0.5]];portConstraint=eastwest;rounded=1;labelBackgroundColor=none;fontSize=12;html=1;" parent="JuVtvxZwjuhmVleojVNO-59" vertex="1">
          <mxGeometry y="26" width="140" height="26" as="geometry" />
        </mxCell>
        <mxCell id="JuVtvxZwjuhmVleojVNO-61" value="-nombre" style="text;strokeColor=none;fillColor=none;align=left;verticalAlign=top;spacingLeft=4;spacingRight=4;overflow=hidden;rotatable=0;points=[[0,0.5],[1,0.5]];portConstraint=eastwest;rounded=1;labelBackgroundColor=none;fontSize=12;html=1;" parent="JuVtvxZwjuhmVleojVNO-59" vertex="1">
          <mxGeometry y="52" width="140" height="26" as="geometry" />
        </mxCell>
        <mxCell id="JuVtvxZwjuhmVleojVNO-62" value="-apellido" style="text;strokeColor=none;fillColor=none;align=left;verticalAlign=top;spacingLeft=4;spacingRight=4;overflow=hidden;rotatable=0;points=[[0,0.5],[1,0.5]];portConstraint=eastwest;rounded=1;labelBackgroundColor=none;fontSize=12;html=1;" parent="JuVtvxZwjuhmVleojVNO-59" vertex="1">
          <mxGeometry y="78" width="140" height="26" as="geometry" />
        </mxCell>
        <mxCell id="JuVtvxZwjuhmVleojVNO-63" value="-teléfono" style="text;strokeColor=none;fillColor=none;align=left;verticalAlign=top;spacingLeft=4;spacingRight=4;overflow=hidden;rotatable=0;points=[[0,0.5],[1,0.5]];portConstraint=eastwest;rounded=1;labelBackgroundColor=none;fontSize=12;html=1;" parent="JuVtvxZwjuhmVleojVNO-59" vertex="1">
          <mxGeometry y="104" width="140" height="26" as="geometry" />
        </mxCell>
        <mxCell id="JuVtvxZwjuhmVleojVNO-64" value="-correo" style="text;strokeColor=none;fillColor=none;align=left;verticalAlign=top;spacingLeft=4;spacingRight=4;overflow=hidden;rotatable=0;points=[[0,0.5],[1,0.5]];portConstraint=eastwest;rounded=1;labelBackgroundColor=none;fontSize=12;html=1;" parent="JuVtvxZwjuhmVleojVNO-59" vertex="1">
          <mxGeometry y="130" width="140" height="26" as="geometry" />
        </mxCell>
        <mxCell id="5buEi4mfANb2UXsL-Ifm-43" value="-fechaCreación" style="text;strokeColor=none;fillColor=none;align=left;verticalAlign=top;spacingLeft=4;spacingRight=4;overflow=hidden;rotatable=0;points=[[0,0.5],[1,0.5]];portConstraint=eastwest;rounded=1;labelBackgroundColor=none;fontSize=12;html=1;" vertex="1" parent="JuVtvxZwjuhmVleojVNO-59">
          <mxGeometry y="156" width="140" height="26" as="geometry" />
        </mxCell>
        <mxCell id="JuVtvxZwjuhmVleojVNO-65" style="edgeStyle=orthogonalEdgeStyle;curved=1;rounded=1;orthogonalLoop=1;jettySize=auto;html=1;exitX=1;exitY=0.5;exitDx=0;exitDy=0;entryX=0;entryY=0.5;entryDx=0;entryDy=0;fontSize=12;endArrow=diamondThin;endFill=1;endSize=19;strokeColor=#007FFF;strokeWidth=2;" parent="1" source="JuVtvxZwjuhmVleojVNO-21" target="JuVtvxZwjuhmVleojVNO-62" edge="1">
          <mxGeometry relative="1" as="geometry" />
        </mxCell>
        <mxCell id="JuVtvxZwjuhmVleojVNO-70" value="Puede ser" style="rounded=1;fontSize=10;strokeColor=none;fillColor=none;fontStyle=1;labelBackgroundColor=default;html=1;whiteSpace=wrap;" parent="1" vertex="1">
          <mxGeometry x="486" y="100" width="70" height="30" as="geometry" />
        </mxCell>
        <mxCell id="JuVtvxZwjuhmVleojVNO-73" value="&lt;b&gt;&amp;lt;&amp;lt;SolicitudServicio&amp;gt;&amp;gt;&lt;/b&gt;" style="swimlane;fontStyle=0;childLayout=stackLayout;horizontal=1;startSize=26;fillColor=#dae8fc;horizontalStack=0;resizeParent=1;resizeParentMax=0;resizeLast=0;collapsible=1;marginBottom=0;rounded=1;labelBackgroundColor=none;fontSize=12;strokeColor=#6c8ebf;html=1;" parent="1" vertex="1">
          <mxGeometry x="210" y="220" width="140" height="416" as="geometry" />
        </mxCell>
        <mxCell id="JuVtvxZwjuhmVleojVNO-74" value="-idSolicitud" style="text;strokeColor=none;fillColor=none;align=left;verticalAlign=top;spacingLeft=4;spacingRight=4;overflow=hidden;rotatable=0;points=[[0,0.5],[1,0.5]];portConstraint=eastwest;rounded=1;labelBackgroundColor=none;fontSize=12;html=1;" parent="JuVtvxZwjuhmVleojVNO-73" vertex="1">
          <mxGeometry y="26" width="140" height="26" as="geometry" />
        </mxCell>
        <mxCell id="JuVtvxZwjuhmVleojVNO-75" value="-tipoServicio" style="text;strokeColor=none;fillColor=none;align=left;verticalAlign=top;spacingLeft=4;spacingRight=4;overflow=hidden;rotatable=0;points=[[0,0.5],[1,0.5]];portConstraint=eastwest;rounded=1;labelBackgroundColor=none;fontSize=12;html=1;" parent="JuVtvxZwjuhmVleojVNO-73" vertex="1">
          <mxGeometry y="52" width="140" height="26" as="geometry" />
        </mxCell>
        <mxCell id="JuVtvxZwjuhmVleojVNO-76" value="-descripción" style="text;strokeColor=none;fillColor=none;align=left;verticalAlign=top;spacingLeft=4;spacingRight=4;overflow=hidden;rotatable=0;points=[[0,0.5],[1,0.5]];portConstraint=eastwest;rounded=1;labelBackgroundColor=none;fontSize=12;html=1;" parent="JuVtvxZwjuhmVleojVNO-73" vertex="1">
          <mxGeometry y="78" width="140" height="26" as="geometry" />
        </mxCell>
        <mxCell id="JuVtvxZwjuhmVleojVNO-101" value="-fecha" style="text;strokeColor=none;fillColor=none;align=left;verticalAlign=top;spacingLeft=4;spacingRight=4;overflow=hidden;rotatable=0;points=[[0,0.5],[1,0.5]];portConstraint=eastwest;rounded=1;labelBackgroundColor=none;fontSize=12;html=1;" parent="JuVtvxZwjuhmVleojVNO-73" vertex="1">
          <mxGeometry y="104" width="140" height="26" as="geometry" />
        </mxCell>
        <mxCell id="JuVtvxZwjuhmVleojVNO-102" value="-hora" style="text;strokeColor=none;fillColor=none;align=left;verticalAlign=top;spacingLeft=4;spacingRight=4;overflow=hidden;rotatable=0;points=[[0,0.5],[1,0.5]];portConstraint=eastwest;rounded=1;labelBackgroundColor=none;fontSize=12;html=1;" parent="JuVtvxZwjuhmVleojVNO-73" vertex="1">
          <mxGeometry y="130" width="140" height="26" as="geometry" />
        </mxCell>
        <mxCell id="JuVtvxZwjuhmVleojVNO-96" value="-ciudad" style="text;strokeColor=none;fillColor=none;align=left;verticalAlign=top;spacingLeft=4;spacingRight=4;overflow=hidden;rotatable=0;points=[[0,0.5],[1,0.5]];portConstraint=eastwest;rounded=1;labelBackgroundColor=none;fontSize=12;html=1;" parent="JuVtvxZwjuhmVleojVNO-73" vertex="1">
          <mxGeometry y="156" width="140" height="26" as="geometry" />
        </mxCell>
        <mxCell id="JuVtvxZwjuhmVleojVNO-105" value="-sede" style="text;strokeColor=none;fillColor=none;align=left;verticalAlign=top;spacingLeft=4;spacingRight=4;overflow=hidden;rotatable=0;points=[[0,0.5],[1,0.5]];portConstraint=eastwest;rounded=1;labelBackgroundColor=none;fontSize=12;html=1;" parent="JuVtvxZwjuhmVleojVNO-73" vertex="1">
          <mxGeometry y="182" width="140" height="26" as="geometry" />
        </mxCell>
        <mxCell id="JuVtvxZwjuhmVleojVNO-104" value="-idVehiculo" style="text;strokeColor=none;fillColor=none;align=left;verticalAlign=top;spacingLeft=4;spacingRight=4;overflow=hidden;rotatable=0;points=[[0,0.5],[1,0.5]];portConstraint=eastwest;rounded=1;labelBackgroundColor=none;fontSize=12;html=1;" parent="JuVtvxZwjuhmVleojVNO-73" vertex="1">
          <mxGeometry y="208" width="140" height="26" as="geometry" />
        </mxCell>
        <mxCell id="JuVtvxZwjuhmVleojVNO-80" value="-nombreCliente" style="text;strokeColor=none;fillColor=none;align=left;verticalAlign=top;spacingLeft=4;spacingRight=4;overflow=hidden;rotatable=0;points=[[0,0.5],[1,0.5]];portConstraint=eastwest;rounded=1;labelBackgroundColor=none;fontSize=12;html=1;" parent="JuVtvxZwjuhmVleojVNO-73" vertex="1">
          <mxGeometry y="234" width="140" height="26" as="geometry" />
        </mxCell>
        <mxCell id="JuVtvxZwjuhmVleojVNO-81" value="-apellidoCliente" style="text;strokeColor=none;fillColor=none;align=left;verticalAlign=top;spacingLeft=4;spacingRight=4;overflow=hidden;rotatable=0;points=[[0,0.5],[1,0.5]];portConstraint=eastwest;rounded=1;labelBackgroundColor=none;fontSize=12;html=1;" parent="JuVtvxZwjuhmVleojVNO-73" vertex="1">
          <mxGeometry y="260" width="140" height="26" as="geometry" />
        </mxCell>
        <mxCell id="JuVtvxZwjuhmVleojVNO-82" value="-tipoId" style="text;strokeColor=none;fillColor=none;align=left;verticalAlign=top;spacingLeft=4;spacingRight=4;overflow=hidden;rotatable=0;points=[[0,0.5],[1,0.5]];portConstraint=eastwest;rounded=1;labelBackgroundColor=none;fontSize=12;html=1;" parent="JuVtvxZwjuhmVleojVNO-73" vertex="1">
          <mxGeometry y="286" width="140" height="26" as="geometry" />
        </mxCell>
        <mxCell id="JuVtvxZwjuhmVleojVNO-83" value="-idCliente" style="text;strokeColor=none;fillColor=none;align=left;verticalAlign=top;spacingLeft=4;spacingRight=4;overflow=hidden;rotatable=0;points=[[0,0.5],[1,0.5]];portConstraint=eastwest;rounded=1;labelBackgroundColor=none;fontSize=12;html=1;" parent="JuVtvxZwjuhmVleojVNO-73" vertex="1">
          <mxGeometry y="312" width="140" height="26" as="geometry" />
        </mxCell>
        <mxCell id="JuVtvxZwjuhmVleojVNO-93" value="-estadoSolicitud" style="text;strokeColor=none;fillColor=none;align=left;verticalAlign=top;spacingLeft=4;spacingRight=4;overflow=hidden;rotatable=0;points=[[0,0.5],[1,0.5]];portConstraint=eastwest;rounded=1;labelBackgroundColor=none;fontSize=12;html=1;" parent="JuVtvxZwjuhmVleojVNO-73" vertex="1">
          <mxGeometry y="338" width="140" height="26" as="geometry" />
        </mxCell>
        <mxCell id="JuVtvxZwjuhmVleojVNO-92" value="-fechaCreacionSolicitud" style="text;strokeColor=none;fillColor=none;align=left;verticalAlign=top;spacingLeft=4;spacingRight=4;overflow=hidden;rotatable=0;points=[[0,0.5],[1,0.5]];portConstraint=eastwest;rounded=1;labelBackgroundColor=none;fontSize=12;html=1;" parent="JuVtvxZwjuhmVleojVNO-73" vertex="1">
          <mxGeometry y="364" width="140" height="26" as="geometry" />
        </mxCell>
        <mxCell id="JuVtvxZwjuhmVleojVNO-89" value="-horaCreacionSolicitud" style="text;strokeColor=none;fillColor=none;align=left;verticalAlign=top;spacingLeft=4;spacingRight=4;overflow=hidden;rotatable=0;points=[[0,0.5],[1,0.5]];portConstraint=eastwest;rounded=1;labelBackgroundColor=none;fontSize=12;html=1;" parent="JuVtvxZwjuhmVleojVNO-73" vertex="1">
          <mxGeometry y="390" width="140" height="26" as="geometry" />
        </mxCell>
        <mxCell id="JuVtvxZwjuhmVleojVNO-84" value="1" style="text;html=1;strokeColor=none;fillColor=none;align=center;verticalAlign=middle;whiteSpace=wrap;rounded=0;labelBackgroundColor=default;fontSize=10;" parent="1" vertex="1">
          <mxGeometry x="440" y="70" width="40" height="30" as="geometry" />
        </mxCell>
        <mxCell id="JuVtvxZwjuhmVleojVNO-85" value="1" style="text;html=1;strokeColor=none;fillColor=none;align=center;verticalAlign=middle;whiteSpace=wrap;rounded=0;labelBackgroundColor=default;fontSize=10;" parent="1" vertex="1">
          <mxGeometry x="560" y="320" width="40" height="30" as="geometry" />
        </mxCell>
        <mxCell id="JuVtvxZwjuhmVleojVNO-86" value="1" style="text;html=1;strokeColor=none;fillColor=none;align=center;verticalAlign=middle;whiteSpace=wrap;rounded=0;labelBackgroundColor=default;fontSize=10;" parent="1" vertex="1">
          <mxGeometry x="300" y="120" width="40" height="30" as="geometry" />
        </mxCell>
        <mxCell id="JuVtvxZwjuhmVleojVNO-87" value="1" style="text;html=1;strokeColor=none;fillColor=none;align=center;verticalAlign=middle;whiteSpace=wrap;rounded=0;labelBackgroundColor=default;fontSize=10;" parent="1" vertex="1">
          <mxGeometry x="710" y="90" width="40" height="30" as="geometry" />
        </mxCell>
        <mxCell id="5buEi4mfANb2UXsL-Ifm-8" style="edgeStyle=orthogonalEdgeStyle;rounded=1;orthogonalLoop=1;jettySize=auto;html=1;exitX=0;exitY=0.5;exitDx=0;exitDy=0;entryX=1.001;entryY=0.208;entryDx=0;entryDy=0;entryPerimeter=0;startArrow=none;startFill=0;endArrow=diamondThin;endFill=1;endSize=20;sourcePerimeterSpacing=27;targetPerimeterSpacing=20;strokeColor=#007FFF;strokeWidth=2;" edge="1" parent="1" source="JuVtvxZwjuhmVleojVNO-96" target="JuVtvxZwjuhmVleojVNO-12">
          <mxGeometry relative="1" as="geometry" />
        </mxCell>
        <mxCell id="5buEi4mfANb2UXsL-Ifm-9" value="1" style="text;html=1;strokeColor=none;fillColor=none;align=center;verticalAlign=middle;whiteSpace=wrap;rounded=0;labelBackgroundColor=default;fontSize=10;" vertex="1" parent="1">
          <mxGeometry x="131" y="69" width="60" height="30" as="geometry" />
        </mxCell>
        <mxCell id="5buEi4mfANb2UXsL-Ifm-10" value="1" style="text;html=1;strokeColor=none;fillColor=none;align=center;verticalAlign=middle;whiteSpace=wrap;rounded=0;labelBackgroundColor=default;fontSize=10;" vertex="1" parent="1">
          <mxGeometry x="280" y="400" width="60" height="30" as="geometry" />
        </mxCell>
        <mxCell id="5buEi4mfANb2UXsL-Ifm-12" value="1" style="text;html=1;strokeColor=none;fillColor=none;align=center;verticalAlign=middle;whiteSpace=wrap;rounded=0;labelBackgroundColor=default;fontSize=10;fontStyle=0" vertex="1" parent="1">
          <mxGeometry x="-157" y="99" width="40" height="30" as="geometry" />
        </mxCell>
        <mxCell id="5buEi4mfANb2UXsL-Ifm-13" value="1" style="text;html=1;strokeColor=none;fillColor=none;align=center;verticalAlign=middle;whiteSpace=wrap;rounded=0;labelBackgroundColor=default;fontSize=10;" vertex="1" parent="1">
          <mxGeometry x="280" y="450" width="60" height="30" as="geometry" />
        </mxCell>
        <mxCell id="5buEi4mfANb2UXsL-Ifm-15" value="&lt;&lt;Vehículo&gt;&gt;" style="swimlane;fontStyle=1;childLayout=stackLayout;horizontal=1;startSize=26;fillColor=#dae8fc;horizontalStack=0;resizeParent=1;resizeParentMax=0;resizeLast=0;collapsible=1;marginBottom=0;strokeColor=#6c8ebf;rounded=1;arcSize=50;" vertex="1" parent="1">
          <mxGeometry x="-90" y="350" width="140" height="364" as="geometry" />
        </mxCell>
        <mxCell id="5buEi4mfANb2UXsL-Ifm-16" value="-carroId" style="text;strokeColor=none;fillColor=none;align=left;verticalAlign=top;spacingLeft=4;spacingRight=4;overflow=hidden;rotatable=0;points=[[0,0.5],[1,0.5]];portConstraint=eastwest;" vertex="1" parent="5buEi4mfANb2UXsL-Ifm-15">
          <mxGeometry y="26" width="140" height="26" as="geometry" />
        </mxCell>
        <mxCell id="5buEi4mfANb2UXsL-Ifm-17" value="-casaFabricante" style="text;strokeColor=none;fillColor=none;align=left;verticalAlign=top;spacingLeft=4;spacingRight=4;overflow=hidden;rotatable=0;points=[[0,0.5],[1,0.5]];portConstraint=eastwest;" vertex="1" parent="5buEi4mfANb2UXsL-Ifm-15">
          <mxGeometry y="52" width="140" height="26" as="geometry" />
        </mxCell>
        <mxCell id="5buEi4mfANb2UXsL-Ifm-18" value="-línea" style="text;strokeColor=none;fillColor=none;align=left;verticalAlign=top;spacingLeft=4;spacingRight=4;overflow=hidden;rotatable=0;points=[[0,0.5],[1,0.5]];portConstraint=eastwest;" vertex="1" parent="5buEi4mfANb2UXsL-Ifm-15">
          <mxGeometry y="78" width="140" height="26" as="geometry" />
        </mxCell>
        <mxCell id="5buEi4mfANb2UXsL-Ifm-19" value="-modelo" style="text;strokeColor=none;fillColor=none;align=left;verticalAlign=top;spacingLeft=4;spacingRight=4;overflow=hidden;rotatable=0;points=[[0,0.5],[1,0.5]];portConstraint=eastwest;" vertex="1" parent="5buEi4mfANb2UXsL-Ifm-15">
          <mxGeometry y="104" width="140" height="26" as="geometry" />
        </mxCell>
        <mxCell id="5buEi4mfANb2UXsL-Ifm-20" value="-cilindraje" style="text;strokeColor=none;fillColor=none;align=left;verticalAlign=top;spacingLeft=4;spacingRight=4;overflow=hidden;rotatable=0;points=[[0,0.5],[1,0.5]];portConstraint=eastwest;" vertex="1" parent="5buEi4mfANb2UXsL-Ifm-15">
          <mxGeometry y="130" width="140" height="26" as="geometry" />
        </mxCell>
        <mxCell id="5buEi4mfANb2UXsL-Ifm-21" value="-color" style="text;strokeColor=none;fillColor=none;align=left;verticalAlign=top;spacingLeft=4;spacingRight=4;overflow=hidden;rotatable=0;points=[[0,0.5],[1,0.5]];portConstraint=eastwest;" vertex="1" parent="5buEi4mfANb2UXsL-Ifm-15">
          <mxGeometry y="156" width="140" height="26" as="geometry" />
        </mxCell>
        <mxCell id="5buEi4mfANb2UXsL-Ifm-22" value="-tipoVehículo" style="text;strokeColor=none;fillColor=none;align=left;verticalAlign=top;spacingLeft=4;spacingRight=4;overflow=hidden;rotatable=0;points=[[0,0.5],[1,0.5]];portConstraint=eastwest;" vertex="1" parent="5buEi4mfANb2UXsL-Ifm-15">
          <mxGeometry y="182" width="140" height="26" as="geometry" />
        </mxCell>
        <mxCell id="5buEi4mfANb2UXsL-Ifm-23" value="-tipoChasis" style="text;strokeColor=none;fillColor=none;align=left;verticalAlign=top;spacingLeft=4;spacingRight=4;overflow=hidden;rotatable=0;points=[[0,0.5],[1,0.5]];portConstraint=eastwest;" vertex="1" parent="5buEi4mfANb2UXsL-Ifm-15">
          <mxGeometry y="208" width="140" height="26" as="geometry" />
        </mxCell>
        <mxCell id="5buEi4mfANb2UXsL-Ifm-24" value="-idChasis" style="text;strokeColor=none;fillColor=none;align=left;verticalAlign=top;spacingLeft=4;spacingRight=4;overflow=hidden;rotatable=0;points=[[0,0.5],[1,0.5]];portConstraint=eastwest;" vertex="1" parent="5buEi4mfANb2UXsL-Ifm-15">
          <mxGeometry y="234" width="140" height="26" as="geometry" />
        </mxCell>
        <mxCell id="5buEi4mfANb2UXsL-Ifm-25" value="-tipoCombustible" style="text;strokeColor=none;fillColor=none;align=left;verticalAlign=top;spacingLeft=4;spacingRight=4;overflow=hidden;rotatable=0;points=[[0,0.5],[1,0.5]];portConstraint=eastwest;" vertex="1" parent="5buEi4mfANb2UXsL-Ifm-15">
          <mxGeometry y="260" width="140" height="26" as="geometry" />
        </mxCell>
        <mxCell id="5buEi4mfANb2UXsL-Ifm-26" value="-motorId" style="text;strokeColor=none;fillColor=none;align=left;verticalAlign=top;spacingLeft=4;spacingRight=4;overflow=hidden;rotatable=0;points=[[0,0.5],[1,0.5]];portConstraint=eastwest;" vertex="1" parent="5buEi4mfANb2UXsL-Ifm-15">
          <mxGeometry y="286" width="140" height="26" as="geometry" />
        </mxCell>
        <mxCell id="5buEi4mfANb2UXsL-Ifm-27" value="-motorSn" style="text;strokeColor=none;fillColor=none;align=left;verticalAlign=top;spacingLeft=4;spacingRight=4;overflow=hidden;rotatable=0;points=[[0,0.5],[1,0.5]];portConstraint=eastwest;" vertex="1" parent="5buEi4mfANb2UXsL-Ifm-15">
          <mxGeometry y="312" width="140" height="26" as="geometry" />
        </mxCell>
        <mxCell id="5buEi4mfANb2UXsL-Ifm-28" value="-agregadoFecha" style="text;strokeColor=none;fillColor=none;align=left;verticalAlign=top;spacingLeft=4;spacingRight=4;overflow=hidden;rotatable=0;points=[[0,0.5],[1,0.5]];portConstraint=eastwest;" vertex="1" parent="5buEi4mfANb2UXsL-Ifm-15">
          <mxGeometry y="338" width="140" height="26" as="geometry" />
        </mxCell>
        <mxCell id="5buEi4mfANb2UXsL-Ifm-32" value="1" style="text;html=1;strokeColor=none;fillColor=none;align=center;verticalAlign=middle;whiteSpace=wrap;rounded=0;labelBackgroundColor=default;fontSize=10;" vertex="1" parent="1">
          <mxGeometry x="-10" y="145" width="60" height="30" as="geometry" />
        </mxCell>
        <mxCell id="5buEi4mfANb2UXsL-Ifm-33" value="1...*" style="text;html=1;strokeColor=none;fillColor=none;align=center;verticalAlign=middle;whiteSpace=wrap;rounded=0;labelBackgroundColor=default;fontSize=10;" vertex="1" parent="1">
          <mxGeometry x="33" y="592" width="60" height="30" as="geometry" />
        </mxCell>
        <mxCell id="5buEi4mfANb2UXsL-Ifm-41" value="1...*" style="text;html=1;strokeColor=none;fillColor=none;align=center;verticalAlign=middle;whiteSpace=wrap;rounded=0;labelBackgroundColor=default;fontSize=10;" vertex="1" parent="1">
          <mxGeometry x="190" y="660" width="60" height="30" as="geometry" />
        </mxCell>
        <mxCell id="5buEi4mfANb2UXsL-Ifm-47" value="&lt;&lt;OrdenServicio&gt;&gt;" style="swimlane;fontStyle=1;childLayout=stackLayout;horizontal=1;startSize=26;fillColor=#dae8fc;horizontalStack=0;resizeParent=1;resizeParentMax=0;resizeLast=0;collapsible=1;marginBottom=0;fontSize=12;strokeColor=#6c8ebf;rounded=1;glass=0;" vertex="1" parent="1">
          <mxGeometry x="290" y="690" width="140" height="364" as="geometry" />
        </mxCell>
        <mxCell id="5buEi4mfANb2UXsL-Ifm-48" value="-idSolicitud" style="text;strokeColor=none;fillColor=none;align=left;verticalAlign=top;spacingLeft=4;spacingRight=4;overflow=hidden;rotatable=0;points=[[0,0.5],[1,0.5]];portConstraint=eastwest;fontSize=12;" vertex="1" parent="5buEi4mfANb2UXsL-Ifm-47">
          <mxGeometry y="26" width="140" height="26" as="geometry" />
        </mxCell>
        <mxCell id="5buEi4mfANb2UXsL-Ifm-49" value="-idOrdenServicio" style="text;strokeColor=none;fillColor=none;align=left;verticalAlign=top;spacingLeft=4;spacingRight=4;overflow=hidden;rotatable=0;points=[[0,0.5],[1,0.5]];portConstraint=eastwest;fontSize=12;" vertex="1" parent="5buEi4mfANb2UXsL-Ifm-47">
          <mxGeometry y="52" width="140" height="26" as="geometry" />
        </mxCell>
        <mxCell id="5buEi4mfANb2UXsL-Ifm-62" value="-fechaEmisión" style="text;strokeColor=none;fillColor=none;align=left;verticalAlign=top;spacingLeft=4;spacingRight=4;overflow=hidden;rotatable=0;points=[[0,0.5],[1,0.5]];portConstraint=eastwest;fontSize=12;" vertex="1" parent="5buEi4mfANb2UXsL-Ifm-47">
          <mxGeometry y="78" width="140" height="26" as="geometry" />
        </mxCell>
        <mxCell id="5buEi4mfANb2UXsL-Ifm-50" value="-tipoIdCliente" style="text;strokeColor=none;fillColor=none;align=left;verticalAlign=top;spacingLeft=4;spacingRight=4;overflow=hidden;rotatable=0;points=[[0,0.5],[1,0.5]];portConstraint=eastwest;fontSize=12;" vertex="1" parent="5buEi4mfANb2UXsL-Ifm-47">
          <mxGeometry y="104" width="140" height="26" as="geometry" />
        </mxCell>
        <mxCell id="5buEi4mfANb2UXsL-Ifm-51" value="-idCliente" style="text;strokeColor=none;fillColor=none;align=left;verticalAlign=top;spacingLeft=4;spacingRight=4;overflow=hidden;rotatable=0;points=[[0,0.5],[1,0.5]];portConstraint=eastwest;fontSize=12;" vertex="1" parent="5buEi4mfANb2UXsL-Ifm-47">
          <mxGeometry y="130" width="140" height="26" as="geometry" />
        </mxCell>
        <mxCell id="5buEi4mfANb2UXsL-Ifm-52" value="-nombreCliente" style="text;strokeColor=none;fillColor=none;align=left;verticalAlign=top;spacingLeft=4;spacingRight=4;overflow=hidden;rotatable=0;points=[[0,0.5],[1,0.5]];portConstraint=eastwest;fontSize=12;" vertex="1" parent="5buEi4mfANb2UXsL-Ifm-47">
          <mxGeometry y="156" width="140" height="26" as="geometry" />
        </mxCell>
        <mxCell id="5buEi4mfANb2UXsL-Ifm-53" value="-apellidoCliente" style="text;strokeColor=none;fillColor=none;align=left;verticalAlign=top;spacingLeft=4;spacingRight=4;overflow=hidden;rotatable=0;points=[[0,0.5],[1,0.5]];portConstraint=eastwest;fontSize=12;" vertex="1" parent="5buEi4mfANb2UXsL-Ifm-47">
          <mxGeometry y="182" width="140" height="26" as="geometry" />
        </mxCell>
        <mxCell id="5buEi4mfANb2UXsL-Ifm-54" value="-carroId" style="text;strokeColor=none;fillColor=none;align=left;verticalAlign=top;spacingLeft=4;spacingRight=4;overflow=hidden;rotatable=0;points=[[0,0.5],[1,0.5]];portConstraint=eastwest;fontSize=12;" vertex="1" parent="5buEi4mfANb2UXsL-Ifm-47">
          <mxGeometry y="208" width="140" height="26" as="geometry" />
        </mxCell>
        <mxCell id="5buEi4mfANb2UXsL-Ifm-61" value="-casaFabricante" style="text;strokeColor=none;fillColor=none;align=left;verticalAlign=top;spacingLeft=4;spacingRight=4;overflow=hidden;rotatable=0;points=[[0,0.5],[1,0.5]];portConstraint=eastwest;fontSize=12;" vertex="1" parent="5buEi4mfANb2UXsL-Ifm-47">
          <mxGeometry y="234" width="140" height="26" as="geometry" />
        </mxCell>
        <mxCell id="5buEi4mfANb2UXsL-Ifm-55" value="-descripciónTarea" style="text;strokeColor=none;fillColor=none;align=left;verticalAlign=top;spacingLeft=4;spacingRight=4;overflow=hidden;rotatable=0;points=[[0,0.5],[1,0.5]];portConstraint=eastwest;fontSize=12;" vertex="1" parent="5buEi4mfANb2UXsL-Ifm-47">
          <mxGeometry y="260" width="140" height="26" as="geometry" />
        </mxCell>
        <mxCell id="5buEi4mfANb2UXsL-Ifm-56" value="-nombreTécnico" style="text;strokeColor=none;fillColor=none;align=left;verticalAlign=top;spacingLeft=4;spacingRight=4;overflow=hidden;rotatable=0;points=[[0,0.5],[1,0.5]];portConstraint=eastwest;fontSize=12;" vertex="1" parent="5buEi4mfANb2UXsL-Ifm-47">
          <mxGeometry y="286" width="140" height="26" as="geometry" />
        </mxCell>
        <mxCell id="5buEi4mfANb2UXsL-Ifm-57" value="-apellidoTécnico" style="text;strokeColor=none;fillColor=none;align=left;verticalAlign=top;spacingLeft=4;spacingRight=4;overflow=hidden;rotatable=0;points=[[0,0.5],[1,0.5]];portConstraint=eastwest;fontSize=12;" vertex="1" parent="5buEi4mfANb2UXsL-Ifm-47">
          <mxGeometry y="312" width="140" height="26" as="geometry" />
        </mxCell>
        <mxCell id="5buEi4mfANb2UXsL-Ifm-70" value="-estadoOrdenServicio" style="text;strokeColor=none;fillColor=none;align=left;verticalAlign=top;spacingLeft=4;spacingRight=4;overflow=hidden;rotatable=0;points=[[0,0.5],[1,0.5]];portConstraint=eastwest;fontSize=12;" vertex="1" parent="5buEi4mfANb2UXsL-Ifm-47">
          <mxGeometry y="338" width="140" height="26" as="geometry" />
        </mxCell>
        <mxCell id="5buEi4mfANb2UXsL-Ifm-65" style="edgeStyle=orthogonalEdgeStyle;rounded=1;orthogonalLoop=1;jettySize=auto;html=1;exitX=0;exitY=0.5;exitDx=0;exitDy=0;entryX=0;entryY=0.5;entryDx=0;entryDy=0;fontSize=12;startArrow=none;startFill=0;endArrow=none;endFill=0;endSize=20;sourcePerimeterSpacing=0;targetPerimeterSpacing=0;strokeColor=#007FFF;strokeWidth=2;" edge="1" parent="1" source="JuVtvxZwjuhmVleojVNO-7" target="5buEi4mfANb2UXsL-Ifm-51">
          <mxGeometry relative="1" as="geometry" />
        </mxCell>
        <mxCell id="5buEi4mfANb2UXsL-Ifm-66" value="Puede consultar" style="rounded=1;fontSize=10;strokeColor=none;fillColor=none;fontStyle=1;labelBackgroundColor=default;html=1;whiteSpace=wrap;" vertex="1" parent="1">
          <mxGeometry x="90" y="860" width="70" height="30" as="geometry" />
        </mxCell>
        <mxCell id="5buEi4mfANb2UXsL-Ifm-71" style="edgeStyle=orthogonalEdgeStyle;rounded=1;orthogonalLoop=1;jettySize=auto;html=1;exitX=0;exitY=0.5;exitDx=0;exitDy=0;entryX=1;entryY=0.5;entryDx=0;entryDy=0;fontSize=12;startArrow=none;startFill=0;endArrow=open;endFill=0;endSize=12;sourcePerimeterSpacing=0;targetPerimeterSpacing=0;strokeColor=#007FFF;strokeWidth=2;dashed=1;" edge="1" parent="1" source="JuVtvxZwjuhmVleojVNO-50" target="JuVtvxZwjuhmVleojVNO-102">
          <mxGeometry relative="1" as="geometry" />
        </mxCell>
        <mxCell id="5buEi4mfANb2UXsL-Ifm-72" value="&amp;lt;&amp;lt;Extend&amp;gt;&amp;gt;" style="rounded=1;fontSize=10;strokeColor=none;fillColor=none;fontStyle=1;labelBackgroundColor=default;html=1;whiteSpace=wrap;" vertex="1" parent="1">
          <mxGeometry x="400" y="360" width="70" height="30" as="geometry" />
        </mxCell>
        <mxCell id="5buEi4mfANb2UXsL-Ifm-83" value="&amp;lt;&amp;lt;Extend&amp;gt;&amp;gt;" style="rounded=1;fontSize=10;strokeColor=none;fillColor=none;fontStyle=1;labelBackgroundColor=default;html=1;whiteSpace=wrap;" vertex="1" parent="1">
          <mxGeometry x="641" y="230" width="70" height="30" as="geometry" />
        </mxCell>
        <mxCell id="5buEi4mfANb2UXsL-Ifm-85" value="&amp;lt;&amp;lt;Extend&amp;gt;&amp;gt;" style="rounded=1;fontSize=10;strokeColor=none;fillColor=none;fontStyle=1;labelBackgroundColor=default;html=1;whiteSpace=wrap;" vertex="1" parent="1">
          <mxGeometry x="200" y="500" width="70" height="30" as="geometry" />
        </mxCell>
        <mxCell id="5buEi4mfANb2UXsL-Ifm-87" value="1" style="text;html=1;strokeColor=none;fillColor=none;align=center;verticalAlign=middle;whiteSpace=wrap;rounded=0;labelBackgroundColor=default;fontSize=10;" vertex="1" parent="1">
          <mxGeometry x="190" y="110" width="40" height="30" as="geometry" />
        </mxCell>
        <mxCell id="5buEi4mfANb2UXsL-Ifm-88" style="edgeStyle=orthogonalEdgeStyle;rounded=1;orthogonalLoop=1;jettySize=auto;html=1;exitX=1;exitY=0.5;exitDx=0;exitDy=0;entryX=1;entryY=0.5;entryDx=0;entryDy=0;fontSize=10;startArrow=none;startFill=0;endArrow=none;endFill=0;endSize=12;sourcePerimeterSpacing=0;targetPerimeterSpacing=0;strokeColor=#007FFF;strokeWidth=2;" edge="1" parent="1" source="JuVtvxZwjuhmVleojVNO-4" target="5buEi4mfANb2UXsL-Ifm-24">
          <mxGeometry relative="1" as="geometry" />
        </mxCell>
        <mxCell id="5buEi4mfANb2UXsL-Ifm-91" style="edgeStyle=orthogonalEdgeStyle;rounded=1;orthogonalLoop=1;jettySize=auto;html=1;exitX=0;exitY=0.5;exitDx=0;exitDy=0;entryX=0;entryY=0.25;entryDx=0;entryDy=0;fontSize=10;startArrow=none;startFill=0;endArrow=block;endFill=0;endSize=12;sourcePerimeterSpacing=0;targetPerimeterSpacing=0;strokeColor=#007FFF;strokeWidth=2;" edge="1" parent="1" source="JuVtvxZwjuhmVleojVNO-64" target="JuVtvxZwjuhmVleojVNO-32">
          <mxGeometry relative="1" as="geometry" />
        </mxCell>
        <mxCell id="5buEi4mfANb2UXsL-Ifm-92" value="&amp;lt;&amp;lt;Extend&amp;gt;&amp;gt;" style="rounded=1;fontSize=10;strokeColor=none;fillColor=none;fontStyle=1;labelBackgroundColor=default;html=1;whiteSpace=wrap;" vertex="1" parent="1">
          <mxGeometry x="500" y="-10" width="70" height="30" as="geometry" />
        </mxCell>
        <mxCell id="5buEi4mfANb2UXsL-Ifm-96" value="&amp;lt;&amp;lt;Extend&amp;gt;&amp;gt;" style="rounded=1;fontSize=10;strokeColor=none;fillColor=none;fontStyle=1;labelBackgroundColor=default;html=1;whiteSpace=wrap;" vertex="1" parent="1">
          <mxGeometry x="40" y="300" width="70" height="30" as="geometry" />
        </mxCell>
        <mxCell id="5buEi4mfANb2UXsL-Ifm-97" style="edgeStyle=orthogonalEdgeStyle;rounded=1;orthogonalLoop=1;jettySize=auto;html=1;exitX=0;exitY=0.5;exitDx=0;exitDy=0;entryX=1;entryY=0.5;entryDx=0;entryDy=0;dashed=1;fontSize=10;startArrow=none;startFill=0;endArrow=open;endFill=0;endSize=10;sourcePerimeterSpacing=0;targetPerimeterSpacing=0;strokeColor=#007FFF;strokeWidth=2;" edge="1" parent="1" source="JuVtvxZwjuhmVleojVNO-51" target="5buEi4mfANb2UXsL-Ifm-52">
          <mxGeometry relative="1" as="geometry" />
        </mxCell>
        <mxCell id="5buEi4mfANb2UXsL-Ifm-98" value="&amp;lt;&amp;lt;Extend&amp;gt;&amp;gt;" style="rounded=1;fontSize=10;strokeColor=none;fillColor=none;fontStyle=1;labelBackgroundColor=default;html=1;whiteSpace=wrap;" vertex="1" parent="1">
          <mxGeometry x="500" y="560" width="70" height="30" as="geometry" />
        </mxCell>
        <mxCell id="5buEi4mfANb2UXsL-Ifm-114" style="edgeStyle=orthogonalEdgeStyle;rounded=1;orthogonalLoop=1;jettySize=auto;html=1;exitX=0;exitY=0.5;exitDx=0;exitDy=0;entryX=0;entryY=0.5;entryDx=0;entryDy=0;fontSize=12;startArrow=none;startFill=0;endArrow=diamondThin;endFill=0;endSize=20;sourcePerimeterSpacing=0;targetPerimeterSpacing=0;strokeColor=#007FFF;strokeWidth=2;" edge="1" parent="1" source="5buEi4mfANb2UXsL-Ifm-21" target="5buEi4mfANb2UXsL-Ifm-54">
          <mxGeometry relative="1" as="geometry" />
        </mxCell>
        <mxCell id="5buEi4mfANb2UXsL-Ifm-115" value="&lt;&lt;Notificación&gt;&gt;" style="swimlane;fontStyle=1;childLayout=stackLayout;horizontal=1;startSize=26;fillColor=#dae8fc;horizontalStack=0;resizeParent=1;resizeParentMax=0;resizeLast=0;collapsible=1;marginBottom=0;rounded=1;glass=0;fontSize=12;strokeColor=#6c8ebf;" vertex="1" parent="1">
          <mxGeometry x="580" y="480" width="140" height="130" as="geometry" />
        </mxCell>
        <mxCell id="5buEi4mfANb2UXsL-Ifm-116" value="-id" style="text;strokeColor=none;fillColor=none;align=left;verticalAlign=top;spacingLeft=4;spacingRight=4;overflow=hidden;rotatable=0;points=[[0,0.5],[1,0.5]];portConstraint=eastwest;rounded=1;glass=0;fontSize=12;" vertex="1" parent="5buEi4mfANb2UXsL-Ifm-115">
          <mxGeometry y="26" width="140" height="26" as="geometry" />
        </mxCell>
        <mxCell id="5buEi4mfANb2UXsL-Ifm-117" value="-Ttitulo" style="text;strokeColor=none;fillColor=none;align=left;verticalAlign=top;spacingLeft=4;spacingRight=4;overflow=hidden;rotatable=0;points=[[0,0.5],[1,0.5]];portConstraint=eastwest;rounded=1;glass=0;fontSize=12;" vertex="1" parent="5buEi4mfANb2UXsL-Ifm-115">
          <mxGeometry y="52" width="140" height="26" as="geometry" />
        </mxCell>
        <mxCell id="5buEi4mfANb2UXsL-Ifm-118" value="-cuerpo" style="text;strokeColor=none;fillColor=none;align=left;verticalAlign=top;spacingLeft=4;spacingRight=4;overflow=hidden;rotatable=0;points=[[0,0.5],[1,0.5]];portConstraint=eastwest;rounded=1;glass=0;fontSize=12;" vertex="1" parent="5buEi4mfANb2UXsL-Ifm-115">
          <mxGeometry y="78" width="140" height="26" as="geometry" />
        </mxCell>
        <mxCell id="5buEi4mfANb2UXsL-Ifm-119" value="-fecha" style="text;strokeColor=none;fillColor=none;align=left;verticalAlign=top;spacingLeft=4;spacingRight=4;overflow=hidden;rotatable=0;points=[[0,0.5],[1,0.5]];portConstraint=eastwest;rounded=1;glass=0;fontSize=12;" vertex="1" parent="5buEi4mfANb2UXsL-Ifm-115">
          <mxGeometry y="104" width="140" height="26" as="geometry" />
        </mxCell>
        <mxCell id="5buEi4mfANb2UXsL-Ifm-123" value="&lt;&lt;Repuesto&gt;&gt;" style="swimlane;fontStyle=1;childLayout=stackLayout;horizontal=1;startSize=26;fillColor=#dae8fc;horizontalStack=0;resizeParent=1;resizeParentMax=0;resizeLast=0;collapsible=1;marginBottom=0;rounded=1;glass=0;fontSize=12;strokeColor=#6c8ebf;" vertex="1" parent="1">
          <mxGeometry x="760" y="290" width="140" height="130" as="geometry" />
        </mxCell>
        <mxCell id="5buEi4mfANb2UXsL-Ifm-124" value="-parteNumero" style="text;strokeColor=none;fillColor=none;align=left;verticalAlign=top;spacingLeft=4;spacingRight=4;overflow=hidden;rotatable=0;points=[[0,0.5],[1,0.5]];portConstraint=eastwest;rounded=1;glass=0;fontSize=12;" vertex="1" parent="5buEi4mfANb2UXsL-Ifm-123">
          <mxGeometry y="26" width="140" height="26" as="geometry" />
        </mxCell>
        <mxCell id="5buEi4mfANb2UXsL-Ifm-125" value="-serieNumero" style="text;strokeColor=none;fillColor=none;align=left;verticalAlign=top;spacingLeft=4;spacingRight=4;overflow=hidden;rotatable=0;points=[[0,0.5],[1,0.5]];portConstraint=eastwest;rounded=1;glass=0;fontSize=12;" vertex="1" parent="5buEi4mfANb2UXsL-Ifm-123">
          <mxGeometry y="52" width="140" height="26" as="geometry" />
        </mxCell>
        <mxCell id="5buEi4mfANb2UXsL-Ifm-126" value="-tipoRepuesto" style="text;strokeColor=none;fillColor=none;align=left;verticalAlign=top;spacingLeft=4;spacingRight=4;overflow=hidden;rotatable=0;points=[[0,0.5],[1,0.5]];portConstraint=eastwest;rounded=1;glass=0;fontSize=12;" vertex="1" parent="5buEi4mfANb2UXsL-Ifm-123">
          <mxGeometry y="78" width="140" height="26" as="geometry" />
        </mxCell>
        <mxCell id="5buEi4mfANb2UXsL-Ifm-127" value="-descripción" style="text;strokeColor=none;fillColor=none;align=left;verticalAlign=top;spacingLeft=4;spacingRight=4;overflow=hidden;rotatable=0;points=[[0,0.5],[1,0.5]];portConstraint=eastwest;rounded=1;glass=0;fontSize=12;" vertex="1" parent="5buEi4mfANb2UXsL-Ifm-123">
          <mxGeometry y="104" width="140" height="26" as="geometry" />
        </mxCell>
        <mxCell id="5buEi4mfANb2UXsL-Ifm-128" value="1" style="text;html=1;strokeColor=none;fillColor=none;align=center;verticalAlign=middle;whiteSpace=wrap;rounded=0;labelBackgroundColor=default;fontSize=10;fontStyle=0" vertex="1" parent="1">
          <mxGeometry x="263" y="805" width="40" height="30" as="geometry" />
        </mxCell>
        <mxCell id="5buEi4mfANb2UXsL-Ifm-129" value="1" style="text;html=1;strokeColor=none;fillColor=none;align=center;verticalAlign=middle;whiteSpace=wrap;rounded=0;labelBackgroundColor=default;fontSize=10;fontStyle=0" vertex="1" parent="1">
          <mxGeometry x="-117" y="490" width="40" height="30" as="geometry" />
        </mxCell>
        <mxCell id="5buEi4mfANb2UXsL-Ifm-130" value="1" style="text;html=1;strokeColor=none;fillColor=none;align=center;verticalAlign=middle;whiteSpace=wrap;rounded=0;labelBackgroundColor=default;fontSize=10;fontStyle=0" vertex="1" parent="1">
          <mxGeometry x="263" y="913" width="40" height="30" as="geometry" />
        </mxCell>
      </root>
    </mxGraphModel>
  </diagram>
</mxfile>
